# xmcd
#
# Track frame offsets:
#	150
#	32353
#	47420
#	63000
#	82120
#	98467
#	119999
#	133215
#	148162
#	162221
#	177718
#	191714
#	204786
#	216792
#	231339
#	248505
#	268176
#	287244
#	299367
#	312445
#
# Disc length: 4432 seconds
#
# Revision: 1
# Processed by: cddbd v1.5.2PL0 Copyright (c) Steve Scherf et al.
# Submitted via: audiograbber 1.83.01
#
DISCID=33114e14
DTITLE=NCM - NCM 036
DYEAR=2006
DGENRE=Christian Gangsta Rap
TTITLE0=Our God Reigns - Delirious
TTITLE1=Joyful Shouting  - Jonathan James
TTITLE2=Draw A Line In The Sand  - Maura Mckinney Mastro
TTITLE3=Mighty, Mighty Good  - Out Of Eden
TTITLE4=Nothing But Bread - Billy Chernoff
TTITLE5=The Hiding Place  - Don Moen
TTITLE6=I´ve Got Joy  - Sandra Miller
TTITLE7=Come What May  - Ian Yates
TTITLE8=Love Is A Verb  - Karen Taylor Good
TTITLE9=Sweet Sister  - Phil Campbell
TTITLE10=Lord Don´t Give Up On Me  - Martha Daughtrey
TTITLE11=The Solid Rock  - Michael Miller And Nirva Dosaint
TTITLE12=Let The Lower Lights Be Burning  - Clint Miller
TTITLE13=Goodbye  - Audio Adrenaline
TTITLE14=There´s A Miracle In Me - Captain T
TTITLE15=About Midnight  - Sarah Kelly
TTITLE16=Before The Morning Come  - Eddy Morton
TTITLE17=Hearts Thats Cheat No More  - T Jae Christian
TTITLE18=Takeaway  - Steve Hughes
TTITLE19=Come Out Of The Wilderness  - Jessy Dixon
EXTD=
EXTT0=
EXTT1=
EXTT2=
EXTT3=
EXTT4=
EXTT5=
EXTT6=
EXTT7=
EXTT8=
EXTT9=
EXTT10=
EXTT11=
EXTT12=
EXTT13=
EXTT14=
EXTT15=
EXTT16=
EXTT17=
EXTT18=
EXTT19=
PLAYORDER=
